<svg preserveAspectRatio="none" width="100%" height="100%" overflow="visible" style="display: block;" viewBox="0 0 18 18" fill="none" xmlns="http://www.w3.org/2000/svg">
<g id="material-symbols-light:mode-night">
<path id="Vector" d="M6.5 1.5C7.53778 1.5 8.51278 1.69694 9.425 2.09083C10.3372 2.48472 11.1311 3.01861 11.8067 3.6925C12.4822 4.36639 13.0164 5.16 13.4092 6.07333C13.8019 6.98667 13.9989 7.96139 14 8.9975C14.0011 10.0336 13.8042 11.0086 13.4092 11.9225C13.0158 12.8353 12.4817 13.6294 11.8067 14.305C11.1317 14.9806 10.3378 15.5153 9.425 15.9092C8.51222 16.3031 7.53722 16.5 6.5 16.5C6.06167 16.5 5.63389 16.4625 5.21667 16.3875C4.79889 16.3119 4.39333 16.1881 4 16.0158C5.05667 15.1486 5.87639 14.1053 6.45917 12.8858C7.04194 11.6664 7.33333 10.3711 7.33333 9C7.33333 7.62889 7.04194 6.33361 6.45917 5.11417C5.87639 3.89472 5.05667 2.85111 4 1.98333C4.39333 1.81111 4.79889 1.6875 5.21667 1.6125C5.63333 1.5375 6.06111 1.5 6.5 1.5Z" fill="var(--fill-0, #4358E1)" style="fill:#4358E1;fill:color(display-p3 0.2638 0.3435 0.8817);fill-opacity:1;"/>
</g>
</svg>
