<svg width="37" height="33" viewBox="0 0 37 33" fill="none" xmlns="http://www.w3.org/2000/svg">
<path opacity="0.55" d="M20.8164 4.63135C22.4578 4.63141 23.9543 5.24807 25.0869 6.26025C26.6326 7.42373 27.6318 9.26956 27.6318 11.3481C27.6318 14.8681 24.767 17.7212 21.2334 17.7212C17.6998 17.7211 14.835 14.8681 14.835 11.3481C14.835 11.2713 14.8381 11.1948 14.8408 11.1187C14.8403 11.1033 14.8379 11.0881 14.8379 11.0728C14.8379 7.7246 12.0904 4.91986 8.78125 4.65381C8.95222 4.64015 9.12531 4.63135 9.2998 4.63135H20.8164Z" fill="#1A2BA3" style="fill:#1A2BA3;fill:color(display-p3 0.1031 0.1680 0.6386);fill-opacity:1;"/>
<path opacity="0.55" d="M15.1797 16.5544C18.7133 16.5545 21.5781 19.4085 21.5781 22.9285C21.5781 23.0083 21.5742 23.0877 21.5713 23.1667C21.5716 23.1792 21.5742 23.1915 21.5742 23.2039C21.5743 26.5519 24.3228 29.3556 27.6318 29.6218C27.461 29.6355 27.2877 29.6453 27.1133 29.6453H15.5967C13.9549 29.6452 12.4579 29.0282 11.3252 28.0154C9.78011 26.8519 8.78134 25.0065 8.78125 22.9285C8.78125 19.4084 11.646 16.5544 15.1797 16.5544Z" fill="#1A2BA3" style="fill:#1A2BA3;fill:color(display-p3 0.1031 0.1680 0.6386);fill-opacity:1;"/>
<ellipse opacity="0.9" cx="7.55451" cy="11.3485" rx="6.39826" ry="6.37361" fill="#1A2BA3" style="fill:#1A2BA3;fill:color(display-p3 0.1031 0.1680 0.6386);fill-opacity:1;"/>
<ellipse opacity="0.9" cx="28.8635" cy="22.9286" rx="6.39826" ry="6.37361" transform="rotate(180 28.8635 22.9286)" fill="#1A2BA3" style="fill:#1A2BA3;fill:color(display-p3 0.1031 0.1680 0.6386);fill-opacity:1;"/>
</svg>
